<svg width="785" height="899" viewBox="0 0 785 899" fill="none" xmlns="http://www.w3.org/2000/svg">
<path d="M421.286 1.37138C421.426 1.45583 421.544 1.57362 421.629 1.71437L422.879 3.79757C422.958 3.93069 423.006 4.08058 423.018 4.23537L423.435 9.65505C423.473 10.1426 423.857 10.5315 424.344 10.5745L440.199 11.9734C440.395 11.9908 440.582 12.0656 440.736 12.1887L442.691 13.7526C442.889 13.9115 443.02 14.1402 443.056 14.392L443.388 16.7171C443.454 17.176 443.826 17.5296 444.288 17.5716L448.855 17.9868C448.951 17.9955 449.046 18.0183 449.136 18.0542L451.4 18.9599C451.466 18.9865 451.536 19.006 451.607 19.0178L453.778 19.3797C454.208 19.4513 454.542 19.7932 454.604 20.2246L454.877 22.1366C454.947 22.6314 454.642 23.1023 454.161 23.2396L451.5 24L450.742 24.2526C449.977 24.5077 449.946 25.5782 450.694 25.8778V25.8778C450.891 25.9565 451.052 26.1048 451.147 26.2944L451.894 27.7889C451.964 27.9277 452 28.0808 452 28.2361V31.8377C452 31.9452 451.983 32.052 451.949 32.154L451.051 34.846C451.017 34.948 451 35.0548 451 35.1623V37.7639C451 37.9192 450.964 38.0723 450.894 38.2111L448.111 43.7778C448.038 43.9237 447.931 44.0496 447.798 44.1444L444.622 46.4126C444.541 46.4705 444.452 46.516 444.357 46.5476L440 48L437.626 48.9496C437.542 48.983 437.455 49.005 437.365 49.015L433.093 49.4896C433.031 49.4965 432.969 49.4976 432.906 49.4928L426.5 49L421.5 48.5L411.5 48L406.312 47.1353C405.84 47.0567 405.379 47.3229 405.211 47.7706L404.037 50.9023C404.012 50.9673 403.981 51.0295 403.944 51.088L400.554 56.4155C400.518 56.4717 400.488 56.5313 400.464 56.5934L398 63L394.032 70.9364C394.011 70.9788 393.992 71.0225 393.978 71.0674L392 77L389 84.5L386.036 89.9338C386.012 89.9779 385.991 90.0237 385.974 90.0709L384 95.5L382.5 99.5L381.047 102.889C381.016 102.963 380.993 103.04 380.98 103.119L380.525 105.852C380.508 105.95 380.477 106.045 380.433 106.134L379.577 107.847C379.526 107.948 379.493 108.057 379.479 108.17L379.016 111.872C379.005 111.957 378.984 112.04 378.952 112.12L378.03 114.425C378.01 114.475 377.994 114.526 377.982 114.579L377 119L376.051 121.846C376.017 121.948 376 122.055 376 122.162V124.838C376 124.945 375.983 125.052 375.949 125.154L375.022 127.933C375.008 127.977 374.989 128.021 374.968 128.064L374.106 129.789C374.036 129.928 374 130.081 374 130.236V132.807C374 132.935 373.976 133.061 373.928 133.179L373.072 135.321C373.024 135.439 373 135.565 373 135.693V137.877C373 137.959 372.99 138.04 372.97 138.119L372.5 140L372.019 142.403C372.007 142.467 372 142.533 372 142.599V148.86C372 148.953 371.987 149.045 371.962 149.135L371.038 152.365C371.013 152.455 371 152.547 371 152.64V163.701C371 163.896 371.057 164.087 371.164 164.25L381.5 180L390 192.5L401 209L408 218.5L411 224L426.5 247L440 267.5L443.5 272.5L449 281.5L455.5 291.5L460 297.5L471 315.5L481.5 331.5L493 350L503 366.5L523 398.5L534 417L541.5 428.5L546 435.5L547.122 437.745C547.34 438.181 547.841 438.396 548.308 438.254L559 435L573 430L584 427.5L595.5 423.5L603 421L609.5 419L619.5 416.5L628.5 414L638 411L648.5 408L660 406L670 404L680.407 402.018C680.469 402.006 680.532 402 680.594 402H686.734C686.908 402 687.079 401.955 687.231 401.868L690.269 400.132C690.421 400.045 690.592 400 690.766 400H696C696.315 400 696.611 399.852 696.8 399.6L697.7 398.4C697.889 398.148 698.185 398 698.5 398H700C700.552 398 701 398.448 701 399V411.816C701 412.228 700.747 412.598 700.362 412.748L692 416L686.617 417.468C686.539 417.489 686.464 417.52 686.394 417.559L682.093 419.948C682.031 419.983 681.966 420.01 681.898 420.031L670.5 423.5L656.5 428.5L645.5 433.5L634.5 437.5L621.5 442.5L600.5 450.5L594 453L582.5 457L578.577 458.961C578.526 458.987 578.472 459.008 578.417 459.025L573.62 460.464C573.54 460.488 573.464 460.522 573.393 460.564L571.094 461.944C571.032 461.981 570.965 462.012 570.896 462.035L568.113 462.962C568.038 462.987 567.966 463.021 567.899 463.063L564.805 464.997C564.354 465.279 564.203 465.865 564.461 466.33L566.464 469.935C566.488 469.978 566.509 470.023 566.526 470.07L567.944 473.851C567.981 473.95 568.034 474.042 568.1 474.124L569.934 476.417C569.978 476.472 570.016 476.532 570.047 476.595L571.453 479.405C571.484 479.468 571.522 479.528 571.566 479.583L573.5 482L575 484.5L581 495.5L585 503.5L590 511L597 524L600 530L602.464 536.407C602.488 536.469 602.518 536.528 602.554 536.584L605.95 541.921C605.983 541.974 606.012 542.029 606.035 542.087L609 549.5L610.447 552.875C610.482 552.958 610.529 553.036 610.585 553.106L612.375 555.343C612.457 555.447 612.519 555.566 612.555 555.693L613.464 558.873C613.488 558.957 613.523 559.038 613.568 559.113L614.944 561.406C614.981 561.468 615.012 561.535 615.035 561.604L616.5 566L619.5 576L619.97 577.881C619.99 577.96 620 578.041 620 578.123V582.697C620 582.895 619.942 583.088 619.832 583.252L619.168 584.248C619.058 584.412 619 584.605 619 584.803V591.519C619 591.823 618.862 592.11 618.625 592.3L616.616 593.907C616.539 593.969 616.454 594.019 616.362 594.055L614.371 594.851C614.133 594.947 613.867 594.947 613.629 594.851L611.597 594.039C611.532 594.013 611.471 593.981 611.413 593.942L607.082 591.055C607.028 591.018 606.977 590.977 606.93 590.93L598 582L591 574L583 563.5L577 556L570 547L564 538L559 531L555.5 524.5L550 516L545 508L541.5 503L537 496L530.05 485.079C530.017 485.026 529.988 484.971 529.965 484.913L528.371 480.928C528.166 480.416 527.584 480.166 527.072 480.371L518 484L510.5 487.5L501 491L491.5 495L486.078 497.957C486.026 497.986 485.972 498.009 485.916 498.028L480.067 499.978C480.023 499.992 479.979 500.011 479.936 500.032L474 503L465.5 506L460.564 508.468C460.521 508.489 460.477 508.508 460.433 508.522L456.154 509.949C456.052 509.983 455.956 510.033 455.87 510.097L452.106 512.921C452.036 512.973 451.959 513.017 451.877 513.049L447 515L443.098 516.951C443.033 516.984 442.964 517.009 442.894 517.027L439.134 517.967C439.045 517.989 438.96 518.023 438.88 518.068L432 522L424 525.5L418 528L408.064 532.968C408.021 532.989 407.977 533.008 407.933 533.022L403.643 534.452C403.548 534.484 403.459 534.529 403.378 534.587L400.135 536.904C400.046 536.967 399.946 537.016 399.841 537.048L395.17 538.449C395.058 538.483 394.952 538.536 394.858 538.607L393 540L391.644 540.904C391.549 540.967 391.443 541.014 391.332 541.042L390.364 541.284C389.872 541.407 389.55 541.88 389.615 542.383L391 553L393 561L394 568L396 578.5L397 583.5L399 595L400 600L401 604L402 607L403 612L404 620L405 625.5L406 629.5L407 635L408 641.5L409.5 651.5L412 661L415 678L416.5 691L418.5 702.5L420.982 711.931C420.994 711.977 421.003 712.024 421.008 712.07L423.5 733.5L425 743.5L426 750L426.395 753.556C426.454 754.085 426.917 754.475 427.448 754.444L435 754L444 753L460.5 750.5L477.5 747L494 742.5L511 737L528 730.5L545.5 722L557 716.5L568.5 710L577.5 704.5L590.5 696.5L599 690L610 682L619 675L626 669L632 663L645 651L656 639L667 627.5L677 614L686 602L693 591.5L700 580.5L704 572.5L712.5 557.5L720 540.5L726 525L731 512L733.5 503.5L735.5 496.5L737 489L739 481L742 467.5L745.5 447L748 416L748.997 385.583C748.999 385.528 748.996 385.473 748.989 385.418L748 378L746 359L743 340L740 325L734 302L731 292L728 282.5L723 269L718.5 257L711 242.5L705 231L700 222L694 212L689 204L679.5 190.5L676.043 185.068C676.014 185.023 675.982 184.98 675.947 184.94L672 180.5L667 174L659.5 165.5L651 156L641 146.5L627 133.5L614 123L602 114L590 106L580 100L573.5 96L566 92L557 87L547 82L534 76L515 69L506 65.5L496 63L488.174 60.0653C488.059 60.0221 487.953 59.9581 487.861 59.8764L479.336 52.2983C479.122 52.1086 479 51.8366 479 51.5509V49.618C479 49.2393 478.786 48.893 478.447 48.7236L477.145 48.0726C477.049 48.0245 476.961 47.9613 476.885 47.8853L476.293 47.2929C476.105 47.1054 476 46.851 476 46.5858V44.4142C476 44.149 476.105 43.8946 476.293 43.7071L477.019 42.9811C477.502 42.4984 477.37 41.6848 476.759 41.3795L476.553 41.2764C476.214 41.107 476 40.7607 476 40.382V36.5662C476 36.2149 476.184 35.8894 476.486 35.7087L478.075 34.7548C478.343 34.5942 478.52 34.3179 478.555 34.0078L478.973 30.2418C478.991 30.0829 479.046 29.9306 479.135 29.7976L480.81 27.2855C480.933 27.1005 481.115 26.9618 481.326 26.8915L483.846 26.0513C483.948 26.0173 484.055 26 484.162 26H486.667C486.883 26 487.094 26.0702 487.267 26.2L488.795 27.3463C488.93 27.4471 489.087 27.5125 489.254 27.5362L491.493 27.8561C492.046 27.9352 492.557 27.545 492.626 26.9902L492.957 24.3405C492.985 24.1198 493.085 23.9146 493.243 23.7574L493.707 23.2929C493.895 23.1054 494.149 23 494.414 23H495.917C495.972 23 496.027 23.0046 496.082 23.0136L499 23.5L505 25L510 27L524.5 32L535 36L550 42.5L559 46.5L573 53L588 61L598 67L608.5 73.5L622 82L634.5 91L646.5 100L657 109L681 131.5L703 156L719 178.5L735 204L742 216.5L749 229.5L754 241L760 256L767 274.5L773.5 297.5L778 317.5L782 340.5L785 367V413L783 435L781 450L777 474L773 488L769.5 500.5L765 516L761 529L754 548L744 571.5L735 590L731 596L727.032 603.936C727.011 603.979 726.986 604.02 726.96 604.058L722.5 610.5L716 621.5L709 632L694 651L678 670L668 680L659.079 689.912C659.027 689.97 658.967 690.023 658.902 690.067L651.092 695.437C651.031 695.479 650.975 695.528 650.924 695.582L645.057 701.939C645.019 701.979 644.978 702.017 644.934 702.051L629.5 714L619 722L607 730L593 738.5L584.5 743.5L580.5 745.5L576 748.5L564 754.5L556.5 757.5L549.074 761.46C549.025 761.487 548.973 761.509 548.92 761.527L540 764.5L532 768L521.5 772L507 776.5L493 780.5L479 784L466.5 787L454 789L443 790.5L431.76 791.966C431.59 791.988 431.428 792.054 431.29 792.158L429.934 793.175C429.663 793.378 429.514 793.704 429.536 794.041L430 801L430.5 807.5V811.5L431 818.5V826.417C431 826.472 430.995 826.527 430.986 826.582L430.014 832.418C430.005 832.473 430 832.528 430 832.583V836.323C430 836.732 429.751 837.1 429.371 837.251L428.062 837.775C427.717 837.913 427.323 837.848 427.04 837.606L424.123 835.106C424.042 835.036 423.972 834.953 423.917 834.861L418.049 825.082C418.017 825.028 417.989 824.97 417.967 824.91L414 814L410 805L408 798L406.732 794.196C406.594 793.782 406.203 793.505 405.766 793.513L377.5 794L353 792L326.5 788.5L306 785.5L285 780L269.5 775L251.5 768L237.5 762L225.097 757.039C225.032 757.013 224.971 756.981 224.913 756.942L220.611 754.074C220.537 754.025 220.457 753.986 220.373 753.958L216.143 752.548C216.048 752.516 215.959 752.471 215.878 752.413L212.564 750.046C212.521 750.015 212.477 749.988 212.43 749.965L205.5 746.5L198 742L174 727L162 718.5L153 711L145 705L135.5 696.5L125.214 687.928C124.551 687.375 123.546 687.867 123.574 688.73L123.996 701.37C123.999 701.456 124.013 701.542 124.037 701.624L125.5 706.5L126.5 713L128 722.5L130 732.5L130.987 738.916C130.996 738.972 131.009 739.027 131.027 739.08L132.463 743.39C132.488 743.463 132.504 743.539 132.511 743.616L133 749L134 754L136.5 765L138.5 775.5L140 782.5L141.5 788L143.5 796L146.5 811L147.5 815L148.5 820L149.5 825.5L151 832L152 839L152.474 842.791C152.491 842.929 152.537 843.062 152.609 843.181L153.891 845.319C153.963 845.438 154.009 845.571 154.026 845.709L155 853.5L156.488 862.922C156.496 862.974 156.5 863.026 156.5 863.078V869.319C156.5 869.439 156.522 869.558 156.564 869.67L157.936 873.33C157.978 873.442 158 873.561 158 873.681V875.382C158 875.761 157.786 876.107 157.447 876.276L156.553 876.724C156.214 876.893 156 877.239 156 877.618V883.197C156 883.395 156.058 883.588 156.168 883.752L156.832 884.748C156.942 884.912 157 885.105 157 885.303V886.086C157 886.351 157.105 886.605 157.293 886.793L157.707 887.207C157.895 887.395 158 887.649 158 887.914V893L157.568 897.756C157.528 898.197 157.202 898.56 156.768 898.646L155.438 898.912C155.159 898.968 154.87 898.902 154.642 898.732L147.166 893.124C147.056 893.042 146.965 892.939 146.897 892.82L145 889.5L142.546 885.082C142.515 885.028 142.48 884.976 142.44 884.928L140.049 882.059C140.017 882.02 139.987 881.978 139.96 881.934L134 872L122 844L118 835L116.5 830L114.5 825L111.5 815.5L108.5 804.5L106.5 796.5L104 789L101.5 778.5L99.0418 772.109C99.014 772.036 98.9947 771.961 98.9843 771.885L97.5 761L95 751L92 737L90.5 725L88.5 713L86.5 697.5L85 689L84 677.5L82 660.5L81.5 646.5L81.0181 639.271C81.0062 639.094 80.9473 638.922 80.8472 638.775L72.5 626.5L67 619L58 605L49 590.5L41.5 576L35.5 563L30.5 552L27 543L24 535.5L21 526.5L19.541 523.096C19.5137 523.032 19.4932 522.966 19.4796 522.898L18.518 518.09C18.506 518.03 18.4886 517.971 18.4659 517.915L16.5341 513.085C16.5114 513.029 16.494 512.97 16.482 512.91L15.5 508L13.5 502L10.5 490L9.5 485L8 480L7 474L5.5 463L4.5 458L3.5 451L2.0222 444.104C2.00744 444.035 2 443.964 2 443.894V438L1.5 430.5L1 427L0 415.5V392.59C0 392.53 0.00539846 392.47 0.0161301 392.411L0.98387 387.089C0.994602 387.03 1 386.97 1 386.91V375.599C1 375.533 1.0065 375.467 1.01942 375.403L1.98058 370.597C1.9935 370.533 2 370.467 2 370.401V362L3 354L4 341.5L5.5 334.5L7 327L10 311L12 303.5L14 297.5L15 293L19 280.5L22 272L26 260.5L33 244.5L40.5 228.5L46 217L59 194.5L67.5 181L77 168L92.5 148.5L112 126L133 107L155 89L177.5 73.5L189 66L202 59L214 52L240 40L254 35L268.5 30L281.5 26L305 20L318.5 17L343.5 13L355 11L373 10L401.596 9.50697C401.855 9.5025 402.102 9.39754 402.286 9.21422L406.252 5.24804C406.413 5.08748 406.623 4.98634 406.849 4.96126L410.404 4.56617C410.771 4.52543 411.086 4.28617 411.223 3.94368L411.781 2.54772C411.916 2.20978 412.224 1.97198 412.585 1.92683L415.66 1.54256C415.88 1.51497 416.085 1.41463 416.243 1.25739L417.207 0.292893C417.395 0.105357 417.649 0 417.914 0H418.723C418.904 0 419.082 0.0492578 419.238 0.142507L421.286 1.37138ZM368.119 47.9701C368.04 47.99 367.959 48 367.877 48H359.693C359.565 48 359.439 48.0243 359.321 48.0715L357.136 48.9458C357.046 48.9817 356.951 49.0045 356.855 49.0132L351.5 49.5L342 51L333 52L327 53L323 54L316.5 55L310.5 56L299 59L288.5 62L279 65L268 68.5L256.075 72.9718C256.025 72.9906 255.977 73.0133 255.93 73.0399L249 77L231 85L221.5 90.5L213 95L205 100L191 108.5L175 120L163 130L152 139L140.5 149.5L130 161L123 168L118 174.5L108 187L96 203L86 218L78 232L72.5 242L70.0473 245.924C70.0158 245.975 69.9889 246.028 69.9668 246.083L68 251L66 255L64 260L61.5 265L59.0254 271.929C59.0085 271.976 58.988 272.022 58.9642 272.067L55.5526 278.402C55.5176 278.467 55.49 278.536 55.4701 278.607L52 291L49 300L47.0231 306.425C47.0077 306.475 46.9963 306.526 46.9889 306.578L46.5106 309.926C46.5035 309.975 46.4928 310.024 46.4785 310.072L45 315L44 321L43 326.5L41 339L39 355L37.5 370L37 387L36.5 399.5L37 405.5V412.917C37 412.972 37.0046 413.027 37.0136 413.082L38 419L39 430L40.5 445.5L43 457.5L45 468L47 478L50 489L52 496.5L53.972 501.923C53.9906 501.974 54.005 502.027 54.0151 502.08L55.4827 509.908C55.4942 509.969 55.5115 510.029 55.5343 510.088L60 521.5L63 528L66.5 538L71.5 548.5L75.5 556.5L77.4553 561.388C77.485 561.462 77.5235 561.533 77.57 561.598L79.8654 564.812C79.954 564.936 80.013 565.078 80.0381 565.228L80.4691 567.815C80.4894 567.936 80.5387 568.052 80.6128 568.15V568.15C81.0571 568.743 82 568.429 82 567.688V557.5L83 548L85 532.5L86.5 524L88 511L91 499L92 491.5L94 484L96 476L97.9849 465.579C97.995 465.526 98.0092 465.475 98.0275 465.424L100 460L102 453L105 443.5L108 433.5L109 430L110.968 425.572C110.989 425.524 111.007 425.474 111.02 425.424L113 418L116 410.5L120 400L127 382L133 366.5L140 349L147 333.5L150 326.5L153 320L156.97 310.074C156.99 310.025 157.014 309.977 157.041 309.931L160 305L161.5 301.5L163 297.5L165 293.5L169 284.5L171 281L173.75 275L175 272.5L177 269L179 264L181.125 260.25L184 253.5L188.5 245.5L194 234.5L199 226L204.5 216L208 209L212 202.5L217 194L220.926 188.111C220.975 188.037 221.014 187.957 221.042 187.873L221.944 185.169C221.981 185.057 222.038 184.953 222.111 184.861L223.945 182.569C223.982 182.523 224.014 182.474 224.042 182.423L227 177L237 162L240 157L245 150.5L252 140L258.5 131L262 127L266 121L271 114.5L273.929 111.083C273.976 111.028 274.029 110.978 274.088 110.934L277.733 108.2C277.906 108.07 278.117 108 278.333 108H280.219C280.678 108 281.078 108.312 281.189 108.757L281.722 110.889C281.869 111.476 282.501 111.8 283.064 111.575L284.223 111.111C284.404 111.038 284.559 110.915 284.671 110.756L287.829 106.244C287.941 106.085 288.096 105.962 288.277 105.889L290.1 105.16C290.355 105.058 290.641 105.065 290.891 105.18L293.347 106.314C293.604 106.432 293.798 106.654 293.882 106.924L294.781 109.798C294.911 110.216 295.298 110.5 295.735 110.5H296.667C296.883 110.5 297.094 110.57 297.267 110.7L298.654 111.74C298.875 111.906 299.017 112.156 299.048 112.43L299.228 114.053C299.327 114.945 300.46 115.265 301.011 114.557L302.7 112.386C302.889 112.142 303.18 112 303.489 112H305C305.552 112 306 112.448 306 113V115.667C306 115.883 305.93 116.094 305.8 116.267L303.167 119.777C303.058 119.923 302.99 120.096 302.972 120.277L302.5 125L301.523 131.839C301.508 131.946 301.475 132.049 301.427 132.145L298.556 137.888C298.519 137.962 298.473 138.032 298.418 138.095L293.75 143.5L286 155L282 160L267 181L259 193.5L250 207L243 220L238 227.5L233 235.5L221 259.25L215 270L209 283L202 296L190 322L184.5 335L178 348.5L171.5 363.5L164 382L154.5 405.5L142 440L137 457L132 475L129 489L127 499L125 507.5L124 515L122 528.75L121 536L120 542L119 550V559.838C119 559.945 118.983 560.052 118.949 560.154L118.051 562.846C118.017 562.948 118 563.055 118 563.162V576.917C118 576.972 117.995 577.027 117.986 577.082L117.514 579.918C117.505 579.973 117.5 580.028 117.5 580.083V623.551C117.5 623.837 117.622 624.109 117.836 624.298L121.925 627.933C121.975 627.978 122.02 628.027 122.06 628.081L124.957 631.943C124.986 631.981 125.017 632.017 125.05 632.05L131 638L143 651.5L158 666L172 678L180 684L187 690L194.795 696.333C194.929 696.443 195.09 696.515 195.261 696.543L197.733 696.955C197.908 696.985 198.072 697.06 198.208 697.174L203.941 701.951C203.98 701.983 204.022 702.013 204.066 702.04L209 705L217 710L226 715L239 722L244 724L249 726.5L253 728L263 732L271 735.5L283 739L296 743L314.5 748L335 751L348 753L364 754L382 756L393.962 756.46C394.529 756.482 395 756.028 395 755.461V755.236C395 755.081 394.964 754.928 394.894 754.789L394.032 753.064C394.011 753.021 393.992 752.977 393.978 752.933L393 750L392 745L391 741L390 738L389 733L388 729L386 720.5L384 712.5L383 707L380 695L378 683L377 679L375 670L372 658L371 651L370.016 643.128C370.005 643.043 369.984 642.96 369.952 642.88L369.045 640.611C369.015 640.537 368.994 640.46 368.983 640.381L368.5 637L367 631L365 619L364 614L362 606L361 598L360 592L359 587L357.518 581.071C357.506 581.024 357.498 580.976 357.493 580.928L357.011 576.111C357.004 576.037 356.988 575.965 356.965 575.894L355.534 571.601C355.511 571.534 355.496 571.465 355.488 571.395L355 567L353.762 561.222C353.628 560.596 352.947 560.255 352.365 560.524L347 563L342 565.5L338.076 567.953C338.025 567.984 337.972 568.011 337.917 568.033L333.097 569.961C333.032 569.987 332.971 570.019 332.913 570.058L330 572L325 574.5L322.613 575.932C322.538 575.977 322.457 576.012 322.373 576.036L319.249 576.929C319.086 576.975 318.937 577.063 318.817 577.183L317.087 578.913C317.029 578.971 316.965 579.021 316.894 579.063L312 582L308 584L303 587L300 589L296.145 590.927C296.049 590.975 295.961 591.039 295.885 591.115L294.115 592.885C294.039 592.961 293.951 593.025 293.855 593.073L290 595L285.5 597.5L280 601L274 604L268.5 607.5L265.568 609.944C265.523 609.981 265.474 610.015 265.424 610.044L262 612L259.074 613.463C259.025 613.488 258.978 613.516 258.933 613.549L253.5 617.5L245 624L238.076 627.956C238.026 627.985 237.977 628.019 237.932 628.056L232 633L229 635L225.598 637.43C225.533 637.476 225.462 637.515 225.388 637.545L223 638.5L219 640L214.179 641.928C214.061 641.976 213.935 642 213.807 642H210.414C210.149 642 209.895 641.895 209.707 641.707L209.115 641.115C209.039 641.039 208.951 640.975 208.855 640.927L207.196 640.098C207.067 640.034 206.953 639.941 206.863 639.828L205.087 637.608C205.029 637.536 204.962 637.473 204.887 637.419L201.626 635.09C201.542 635.03 201.469 634.958 201.407 634.876L200.097 633.13C200.033 633.044 199.983 632.948 199.949 632.846L199.131 630.393C199.047 630.141 198.867 629.933 198.63 629.815L197.553 629.276C197.214 629.107 197 628.761 197 628.382V625.833C197 625.617 197.07 625.406 197.2 625.233L197.98 624.194C198.278 623.796 198.239 623.239 197.887 622.887L197.293 622.293C197.105 622.105 197 621.851 197 621.586V618.303C197 618.105 197.058 617.912 197.168 617.748L198.904 615.144C198.967 615.049 199.014 614.943 199.042 614.832L199.925 611.3C199.974 611.104 200.08 610.928 200.231 610.795L204.5 607L209.5 603L213 600.5L214.418 599.555C214.472 599.518 214.523 599.477 214.57 599.43L215.93 598.07C215.977 598.023 216.028 597.982 216.082 597.945L219 596L222.919 594.04C222.973 594.013 223.024 593.982 223.072 593.946L227 591L229.5 589.5L232 587.5L236 584.5L239.5 582L243 580L247 577L250.5 575L253.5 573L258.5 570L263 567L267 565L272 562L277.929 558.047C277.976 558.016 278.026 557.988 278.078 557.965L282.422 556.035C282.474 556.012 282.524 555.984 282.571 555.953L287 553L302.5 544L308.929 541.033C308.976 541.011 309.022 540.986 309.065 540.957L314.913 537.058C314.971 537.019 315.032 536.987 315.097 536.961L320 535L325 532.5L331 529L335 527L337.889 525.074C337.963 525.025 338.043 524.986 338.127 524.958L341 524L345.125 522.35C345.616 522.154 345.869 521.608 345.702 521.105L345 519L344 515L342 505L341.521 501.17C341.507 501.057 341.474 500.948 341.423 500.847L340.06 498.12C340.02 498.04 339.991 497.956 339.974 497.869L339 493L338.5 488.5L338.013 485.577C338.004 485.526 337.992 485.475 337.975 485.426L336.5 481L335 476L334.018 470.107C334.006 470.036 333.987 469.966 333.96 469.9L333.03 467.575C333.01 467.525 332.994 467.474 332.982 467.421L332 463L331.018 458.09C331.006 458.03 330.989 457.971 330.966 457.915L329.048 453.12C329.016 453.04 328.995 452.957 328.984 452.872L328.5 449L327.5 445L325.5 438L323.03 430.097C323.01 430.033 322.997 429.966 322.99 429.899L322.515 425.148C322.505 425.05 322.481 424.954 322.443 424.863L320 419L317 409.5L314.034 402.085C314.011 402.029 313.994 401.97 313.982 401.91L313.016 397.079C313.005 397.027 312.991 396.975 312.972 396.924L311.5 393L309.54 388.1C309.513 388.034 309.494 387.964 309.482 387.893L309.025 385.148C309.008 385.05 308.977 384.955 308.933 384.866L307.077 381.153C307.026 381.052 306.993 380.943 306.979 380.83L306.521 377.17C306.507 377.057 306.474 376.948 306.423 376.847L305.049 374.098C305.016 374.033 304.991 373.964 304.973 373.894L304.042 370.168C304.014 370.057 303.967 369.951 303.904 369.856L302.096 367.144C302.033 367.049 301.986 366.943 301.958 366.832L301.019 363.078C301.006 363.026 300.989 362.975 300.968 362.926L298 356L295.056 351.094C295.019 351.032 294.988 350.965 294.965 350.896L293.035 345.104C293.012 345.035 292.981 344.968 292.944 344.906L290.048 340.081C290.016 340.027 289.989 339.97 289.968 339.912L286.537 330.601C286.512 330.534 286.481 330.47 286.442 330.409L283 325L277 313L272.5 305.5L269 301L265.54 295.562C265.513 295.521 265.484 295.481 265.452 295.444L259.057 288.066C259.019 288.022 258.985 287.975 258.955 287.925L256.143 283.238C256.049 283.082 256 282.904 256 282.723V280.236C256 280.081 256.036 279.928 256.106 279.789L256.74 278.519C256.901 278.198 256.877 277.816 256.678 277.517L255.168 275.252C255.058 275.088 255 274.895 255 274.697V273.414C255 273.149 255.105 272.895 255.293 272.707L256.45 271.55C256.483 271.517 256.519 271.486 256.557 271.457L258.1 270.3C258.352 270.111 258.5 269.815 258.5 269.5V267.123C258.5 267.041 258.51 266.96 258.53 266.881L258.933 265.269C258.977 265.093 259.068 264.932 259.196 264.804L260.707 263.293C260.895 263.105 261.149 263 261.414 263H266.279C266.71 263 267.092 263.275 267.228 263.684L267.326 263.979C267.435 264.304 267.701 264.55 268.033 264.633L269.381 264.97C269.46 264.99 269.541 265 269.623 265H270.779C271.21 265 271.592 264.725 271.728 264.316L272.5 262L272.933 260.269C272.977 260.093 273.068 259.932 273.196 259.804L273.707 259.293C273.895 259.105 274.149 259 274.414 259H276.586C276.851 259 277.105 259.105 277.293 259.293L281.367 263.367C281.727 263.727 282.301 263.759 282.699 263.441L284.226 262.219C284.403 262.077 284.624 262 284.851 262H289C289.315 262 289.611 262.148 289.8 262.4L290.7 263.6C290.889 263.852 291.185 264 291.5 264H294C294.552 264 295 263.552 295 263V260.414C295 260.149 295.105 259.895 295.293 259.707L295.855 259.145C295.951 259.049 296.065 258.974 296.191 258.924L298.129 258.149C298.367 258.053 298.633 258.053 298.871 258.149L300.809 258.924C300.935 258.974 301.049 259.049 301.145 259.145L304 262L307.686 266.096C308.108 266.564 308.852 266.531 309.23 266.027L309.7 265.4C309.889 265.148 310.185 265 310.5 265H312.586C312.851 265 313.105 265.105 313.293 265.293L320 272L325.839 276.866C325.945 276.954 326.032 277.064 326.094 277.187L327.33 279.66C327.439 279.879 327.626 280.05 327.853 280.141L329.809 280.924C329.935 280.974 330.049 281.049 330.145 281.145L334.95 285.95C334.983 285.983 335.014 286.019 335.043 286.057L339.5 292L347 300L351.5 305L354.95 309.928C354.983 309.976 355.021 310.021 355.062 310.062L362.833 317.833C362.943 317.943 363.026 318.077 363.075 318.224L363.925 320.776C363.974 320.923 364.057 321.057 364.167 321.167L369 326L373 331L377.682 336.982C378.395 337.893 379.827 337.069 379.398 335.995L379 335L378.051 332.154C378.017 332.052 378 331.945 378 331.838V330.236C378 330.081 377.964 329.928 377.894 329.789L377 328L375 323L372 315L370.525 310.083C370.508 310.028 370.487 309.974 370.461 309.923L368 305L366 300L364.525 295.083C364.508 295.028 364.487 294.974 364.461 294.923L362.032 290.064C362.011 290.021 361.992 289.977 361.978 289.933L359.022 281.067C359.008 281.023 358.989 280.979 358.968 280.936L357.032 277.064C357.011 277.021 356.992 276.977 356.978 276.933L355 271L352.061 264.141C352.02 264.048 351.995 263.948 351.985 263.847L351.513 259.13C351.504 259.044 351.485 258.959 351.454 258.878L350 255L348 251L346 246L344 239L342 233L341 229L340 224L338 216.5L335 195V182.11C335 182.037 334.992 181.964 334.976 181.893L334.087 177.892C334.031 177.641 333.88 177.42 333.666 177.277L332.785 176.69C332.6 176.567 332.462 176.385 332.391 176.174L332.051 175.154C332.017 175.052 332 174.945 332 174.838V172.693C332 172.565 332.024 172.439 332.072 172.321L332.821 170.448C332.934 170.165 332.912 169.846 332.76 169.581L331.24 166.919C331.088 166.654 331.066 166.335 331.179 166.052L331.924 164.191C331.974 164.065 332.049 163.951 332.145 163.855L333.764 162.236C333.917 162.083 334.017 161.884 334.047 161.67L335 155L335.5 148L336 143.5L338 133.5L340 125.5L342 117L344.5 107L346 102L348 96L351 89L357 76.5L363 63.5L368 55L371.028 48.9447C371.41 48.1805 370.72 47.3201 369.891 47.5273L368.119 47.9701ZM404 289.5L411 308.5L413.948 314.887C413.983 314.962 414.008 315.041 414.023 315.122L415.478 322.881C415.492 322.96 415.517 323.037 415.55 323.11L417.96 328.413C417.987 328.471 418.007 328.531 418.022 328.593L421 341L423 349L424 356.5V365.91C424 365.97 423.995 366.03 423.984 366.089L423.045 371.251C423.016 371.415 422.946 371.568 422.842 371.697L421.066 373.917C421.022 373.972 420.984 374.032 420.953 374.095L420.106 375.789C420.036 375.928 420 376.081 420 376.236V379.36C420 379.453 419.987 379.545 419.962 379.635L417.026 389.911C417.009 389.97 416.986 390.028 416.958 390.083L415.055 393.89C415.018 393.963 414.973 394.031 414.92 394.093L412.1 397.384C412.034 397.461 411.956 397.527 411.87 397.581L408.163 399.898C408.055 399.966 407.936 400.012 407.811 400.034L402.669 400.969C402.557 400.99 402.45 401.029 402.351 401.085L399.231 402.868C399.079 402.955 398.908 403 398.734 403H395.162C395.055 403 394.948 402.983 394.846 402.949L392 402L387 400L383.145 398.073C383.049 398.025 382.961 397.961 382.885 397.885L381.115 396.115C381.039 396.039 380.951 395.975 380.855 395.927L379.145 395.073C379.049 395.025 378.961 394.961 378.885 394.885L376.05 392.05C376.017 392.017 375.981 391.986 375.943 391.957L372.076 389.057C372.025 389.019 371.979 388.976 371.936 388.93L367 383.5L361.089 378.082C361.03 378.027 360.977 377.966 360.933 377.899L358.055 373.582C358.018 373.528 357.977 373.477 357.93 373.43L354.07 369.57C354.023 369.523 353.982 369.472 353.945 369.418L351.055 365.082C351.018 365.028 350.977 364.977 350.93 364.93L348.587 362.587C348.529 362.529 348.479 362.465 348.437 362.394L347.116 360.193C347.04 360.066 346.936 359.957 346.813 359.875L344.162 358.108C344.055 358.037 343.963 357.945 343.89 357.839L341.419 354.215C340.862 353.397 339.603 354.094 340 355V355L341.948 359.869C341.982 359.956 342.005 360.047 342.014 360.141L342.487 364.87C342.496 364.956 342.515 365.041 342.546 365.122L345.5 373L346.933 375.866C346.977 375.955 347.008 376.05 347.025 376.148L347.46 378.759C347.486 378.918 347.55 379.067 347.646 379.195L348.854 380.805C348.95 380.933 349.014 381.082 349.04 381.241L349.5 384L351.97 392.397C351.99 392.466 352.017 392.532 352.051 392.594L354.919 397.852C354.973 397.95 355.009 398.056 355.028 398.166L355.982 403.893C355.994 403.964 356.013 404.034 356.04 404.1L357.972 408.931C357.991 408.977 358.006 409.024 358.017 409.073L360 417.5L362 424.5L363.974 431.902C363.991 431.967 364.015 432.031 364.046 432.091L364.933 433.866C364.977 433.955 365.008 434.05 365.025 434.148L366 440L368 447L368.974 451.869C368.991 451.956 369.02 452.04 369.06 452.12L369.933 453.866C369.977 453.955 370.008 454.05 370.025 454.148L370.975 459.852C370.992 459.95 371.023 460.045 371.067 460.134L371.916 461.831C371.971 461.943 372.006 462.064 372.017 462.188L372.489 467.384C372.496 467.461 372.512 467.537 372.537 467.61L374 472L376 480L377.5 487L379 495L380.438 501.711C380.479 501.9 380.573 502.073 380.709 502.209L381.578 503.078C381.838 503.338 382.22 503.434 382.572 503.328L386.917 502.025C386.972 502.008 387.026 501.987 387.077 501.961L400.923 495.039C400.974 495.013 401.028 494.992 401.083 494.975L405.917 493.525C405.972 493.508 406.026 493.487 406.077 493.461L410.936 491.032C410.979 491.011 411.023 490.992 411.067 490.978L413.933 490.022C413.977 490.008 414.021 489.989 414.064 489.968L418 488L426 485L433 482L439 479L447 476L452.936 473.032C452.979 473.011 453.023 472.992 453.067 472.978L456 472L459.5 471L465.5 469L469 467.5L473 466L476.936 464.032C476.979 464.011 477.023 463.992 477.067 463.978L479.933 463.022C479.977 463.008 480.021 462.989 480.064 462.968L484 461L489 459L501 455L506 453L508.861 452.285C509.458 452.135 509.78 451.487 509.537 450.921L508.541 448.595C508.514 448.532 508.48 448.472 508.441 448.415L505 443.5L501.049 438.067C501.016 438.022 500.988 437.975 500.963 437.926L498.047 432.095C498.016 432.032 497.978 431.972 497.934 431.917L496.055 429.569C496.018 429.523 495.986 429.474 495.958 429.423L493 424L489 418L485 411.5L482 406.5L479 402L477 398L474 393L470 387L467 382L461.5 374L460 371L456 365L450 355L442 343L439 337.5L433.5 328.5L430.047 324.061C430.016 324.02 429.987 323.977 429.963 323.933L425 315L419 307L414 298.5L410.75 293.25L407 288L403 282V282C402.36 280.967 400.782 281.778 401.25 282.899L404 289.5Z" fill="black"/>
</svg>
